<mxfile host="app.diagrams.net" agent="Mozilla/5.0 (Windows NT 10.0; Win64; x64) AppleWebKit/537.36 (KHTML, like Gecko) Chrome/131.0.0.0 Safari/537.36" version="24.8.4">
  <diagram name="Page-1" id="SDOzWbV70_7biV7m2FC6">
    <mxGraphModel dx="1500" dy="796" grid="1" gridSize="10" guides="1" tooltips="1" connect="1" arrows="1" fold="1" page="1" pageScale="1" pageWidth="850" pageHeight="1100" math="0" shadow="0">
      <root>
        <mxCell id="0" />
        <mxCell id="1" parent="0" />
        <mxCell id="aVytLB4ivRo-0Gfj-eNB-1" value="" style="image;sketch=0;aspect=fixed;html=1;points=[];align=center;fontSize=12;image=img/lib/mscae/Docker.svg;" vertex="1" parent="1">
          <mxGeometry x="593.99" y="75" width="60.98" height="50" as="geometry" />
        </mxCell>
        <mxCell id="aVytLB4ivRo-0Gfj-eNB-2" value="" style="shape=mxgraph.cisco.computers_and_peripherals.pc;html=1;pointerEvents=1;dashed=0;fillColor=#036897;strokeColor=#ffffff;strokeWidth=2;verticalLabelPosition=bottom;verticalAlign=top;align=center;outlineConnect=0;" vertex="1" parent="1">
          <mxGeometry x="200" y="50" width="70" height="50" as="geometry" />
        </mxCell>
        <mxCell id="aVytLB4ivRo-0Gfj-eNB-4" value="0.0.0.0:5000" style="text;html=1;align=center;verticalAlign=middle;whiteSpace=wrap;rounded=0;" vertex="1" parent="1">
          <mxGeometry x="559.48" y="45" width="130" height="30" as="geometry" />
        </mxCell>
        <mxCell id="aVytLB4ivRo-0Gfj-eNB-5" value="localhost:8080" style="text;html=1;align=center;verticalAlign=middle;whiteSpace=wrap;rounded=0;" vertex="1" parent="1">
          <mxGeometry x="170" y="20" width="130" height="30" as="geometry" />
        </mxCell>
        <mxCell id="aVytLB4ivRo-0Gfj-eNB-8" style="edgeStyle=orthogonalEdgeStyle;rounded=0;orthogonalLoop=1;jettySize=auto;html=1;" edge="1" parent="1" source="aVytLB4ivRo-0Gfj-eNB-6" target="aVytLB4ivRo-0Gfj-eNB-2">
          <mxGeometry relative="1" as="geometry" />
        </mxCell>
        <mxCell id="aVytLB4ivRo-0Gfj-eNB-6" value="" style="shape=image;verticalLabelPosition=bottom;labelBackgroundColor=default;verticalAlign=top;aspect=fixed;imageAspect=0;image=https://gitlab.com/uploads/-/system/project/avatar/22180576/dockerhub.png;" vertex="1" parent="1">
          <mxGeometry x="216.16999999999996" y="150" width="37.65" height="30" as="geometry" />
        </mxCell>
        <mxCell id="aVytLB4ivRo-0Gfj-eNB-7" value="mrxmoon/flask-app:latest" style="text;html=1;align=center;verticalAlign=middle;whiteSpace=wrap;rounded=0;" vertex="1" parent="1">
          <mxGeometry x="160" y="180" width="170" height="30" as="geometry" />
        </mxCell>
        <mxCell id="aVytLB4ivRo-0Gfj-eNB-9" value="pull" style="text;html=1;align=center;verticalAlign=middle;whiteSpace=wrap;rounded=0;" vertex="1" parent="1">
          <mxGeometry x="190" y="120" width="46.17" height="30" as="geometry" />
        </mxCell>
        <mxCell id="aVytLB4ivRo-0Gfj-eNB-12" value="bridge" style="ellipse;shape=cloud;whiteSpace=wrap;html=1;" vertex="1" parent="1">
          <mxGeometry x="424.48" y="65.5" width="110" height="70" as="geometry" />
        </mxCell>
        <mxCell id="aVytLB4ivRo-0Gfj-eNB-13" value="172.17.0.2" style="text;html=1;align=center;verticalAlign=middle;whiteSpace=wrap;rounded=0;" vertex="1" parent="1">
          <mxGeometry x="494.48" y="123" width="130" height="30" as="geometry" />
        </mxCell>
        <mxCell id="aVytLB4ivRo-0Gfj-eNB-14" value="172.17.0.1" style="text;html=1;align=center;verticalAlign=middle;whiteSpace=wrap;rounded=0;" vertex="1" parent="1">
          <mxGeometry x="339.48" y="120.5" width="130" height="30" as="geometry" />
        </mxCell>
        <mxCell id="aVytLB4ivRo-0Gfj-eNB-15" value="eth0" style="rounded=1;whiteSpace=wrap;html=1;" vertex="1" parent="1">
          <mxGeometry x="544.48" y="100.5" width="30" height="20" as="geometry" />
        </mxCell>
        <mxCell id="aVytLB4ivRo-0Gfj-eNB-16" value="vent0" style="rounded=1;whiteSpace=wrap;html=1;" vertex="1" parent="1">
          <mxGeometry x="384.48" y="100.5" width="40" height="20" as="geometry" />
        </mxCell>
        <mxCell id="aVytLB4ivRo-0Gfj-eNB-17" value="NAT" style="rounded=1;whiteSpace=wrap;html=1;" vertex="1" parent="1">
          <mxGeometry x="299.48" y="75" width="40" height="20" as="geometry" />
        </mxCell>
        <mxCell id="aVytLB4ivRo-0Gfj-eNB-18" value="172.17.0.1" style="text;html=1;align=center;verticalAlign=middle;whiteSpace=wrap;rounded=0;" vertex="1" parent="1">
          <mxGeometry x="254.48" y="93" width="130" height="30" as="geometry" />
        </mxCell>
        <mxCell id="aVytLB4ivRo-0Gfj-eNB-19" value="loopback" style="text;html=1;align=center;verticalAlign=middle;whiteSpace=wrap;rounded=0;" vertex="1" parent="1">
          <mxGeometry x="254.48" y="130" width="130" height="30" as="geometry" />
        </mxCell>
        <mxCell id="aVytLB4ivRo-0Gfj-eNB-20" value="" style="sketch=0;html=1;aspect=fixed;strokeColor=none;shadow=0;fillColor=#3B8DF1;verticalAlign=top;labelPosition=center;verticalLabelPosition=bottom;shape=mxgraph.gcp2.arrow_cycle" vertex="1" parent="1">
          <mxGeometry x="308.95" y="120" width="21.05" height="20" as="geometry" />
        </mxCell>
      </root>
    </mxGraphModel>
  </diagram>
</mxfile>
